<?xml version="1.0" standalone="no"?><!DOCTYPE svg PUBLIC "-//W3C//DTD SVG 1.1//EN" "http://www.w3.org/Graphics/SVG/1.1/DTD/svg11.dtd"><svg t="1651392759822" class="icon" viewBox="0 0 1024 1024" version="1.1" xmlns="http://www.w3.org/2000/svg" p-id="2044" width="64" height="64" xmlns:xlink="http://www.w3.org/1999/xlink"><defs><style type="text/css">@font-face { font-family: feedback-iconfont; src: url("//at.alicdn.com/t/font_1031158_u69w8yhxdu.woff2?t=1630033759944") format("woff2"), url("//at.alicdn.com/t/font_1031158_u69w8yhxdu.woff?t=1630033759944") format("woff"), url("//at.alicdn.com/t/font_1031158_u69w8yhxdu.ttf?t=1630033759944") format("truetype"); }
</style></defs><path d="M957.147429 475.428571q0 30.281143-21.138286 51.419429l-372.004571 372.589714q-22.308571 21.138286-52.004571 21.138286-30.281143 0-51.419429-21.138286l-372.004571-372.589714q-21.723429-20.553143-21.723429-51.419429 0-30.281143 21.723429-52.004571l42.276571-42.861714q22.308571-21.138286 52.004571-21.138286 30.281143 0 51.419429 21.138286l168.009143 168.009143 0-402.285714q0-29.696 21.723429-51.419429t51.419429-21.723429l73.142857 0q29.696 0 51.419429 21.723429t21.723429 51.419429l0 402.285714 168.009143-168.009143q21.138286-21.138286 51.419429-21.138286 29.696 0 52.004571 21.138286l42.861714 42.861714q21.138286 22.308571 21.138286 52.004571z" p-id="2045" fill="#f5f5f5"></path></svg>